<svg width="36" height="36" viewBox="0 0 36 36" fill="none" xmlns="http://www.w3.org/2000/svg">
<circle cx="18" cy="18" r="18" fill="#0059DA"/>
<path fill-rule="evenodd" clip-rule="evenodd" d="M28 18C28 23.5228 23.5228 28 18 28C12.4772 28 8 23.5228 8 18C8 12.4772 12.4772 8 18 8C23.5228 8 28 12.4772 28 18ZM16.8286 17.7282C16.8286 17.4052 16.5722 17.1597 16.2517 17.1467H13.7691V15.8933L11 17.7282L13.7563 19.5631V18.3097H16.2517C16.5722 18.2968 16.8286 18.0512 16.8286 17.7282ZM21.8547 12.5C22.4872 12.5 22.9999 13.0168 22.9999 13.6543H23V21.8023C23 21.8473 22.9968 21.8914 22.9919 21.935V21.9414C22.9919 22.3164 22.7856 22.696 22.5312 22.7893L17.925 24.4791C17.6705 24.5724 17.4643 24.3441 17.4643 23.9691V22.9565H15.9084C15.2759 22.9565 14.7632 22.4397 14.7632 21.8022V19.901C14.7632 19.7749 14.8128 19.654 14.9013 19.5649C14.9897 19.4758 15.1097 19.4257 15.2347 19.4257C15.3598 19.4257 15.4797 19.4758 15.5682 19.5649C15.6566 19.654 15.7063 19.7749 15.7063 19.901V21.5924C15.7063 21.702 15.7495 21.8072 15.8265 21.8848C15.9034 21.9623 16.0078 22.0059 16.1166 22.0059H17.4643V15.8211C17.4643 15.4462 17.6706 15.0665 17.925 14.9732L21.9717 13.4886C21.9386 13.4649 21.8984 13.4506 21.8548 13.4506H16.1166C16.0078 13.4506 15.9034 13.4942 15.8265 13.5717C15.7495 13.6493 15.7063 13.7544 15.7063 13.8641V15.5555C15.7063 15.6815 15.6566 15.8024 15.5682 15.8916C15.4797 15.9807 15.3598 16.0308 15.2347 16.0308C15.1097 16.0308 14.9897 15.9807 14.9013 15.8916C14.8128 15.8024 14.7632 15.6815 14.7632 15.5555V13.6543C14.7632 13.0168 15.2759 12.5 15.9084 12.5H21.8547Z" fill="white"/>
</svg>
